<mxfile host="app.diagrams.net" agent="Mozilla/5.0 (Windows NT 10.0; Win64; x64) AppleWebKit/537.36 (KHTML, like Gecko) Chrome/140.0.0.0 Safari/537.36" version="28.2.3">
  <diagram name="Trang-1" id="C1pPgeH8CmfBWgnheQG8">
    <mxGraphModel dx="1042" dy="1731" grid="1" gridSize="10" guides="1" tooltips="1" connect="1" arrows="1" fold="1" page="1" pageScale="1" pageWidth="827" pageHeight="1169" math="0" shadow="0">
      <root>
        <mxCell id="0" />
        <mxCell id="1" parent="0" />
        <mxCell id="pt4FCwm9u95KX51KxjBi-1" value="&lt;font style=&quot;font-size: 24px;&quot;&gt;Bắt đầu&lt;/font&gt;" style="ellipse;whiteSpace=wrap;html=1;" parent="1" vertex="1">
          <mxGeometry x="229" y="-510" width="230" height="80" as="geometry" />
        </mxCell>
        <mxCell id="pt4FCwm9u95KX51KxjBi-2" value="" style="endArrow=classic;html=1;rounded=0;" parent="1" edge="1">
          <mxGeometry width="50" height="50" relative="1" as="geometry">
            <mxPoint x="341.5" y="-430" as="sourcePoint" />
            <mxPoint x="342" y="-370" as="targetPoint" />
            <Array as="points">
              <mxPoint x="342" y="-400" />
            </Array>
          </mxGeometry>
        </mxCell>
        <mxCell id="pt4FCwm9u95KX51KxjBi-3" value="&lt;font style=&quot;font-size: 18px;&quot;&gt;&lt;span style=&quot;color: rgb(0, 0, 0); font-family: Arial, sans-serif; font-size: 16px; text-align: left; white-space-collapse: preserve; background-color: rgb(255, 255, 255);&quot;&gt;Sinh viên nhập điểm&lt;/span&gt;&lt;b&gt;&lt;/b&gt;&lt;/font&gt;" style="shape=parallelogram;perimeter=parallelogramPerimeter;whiteSpace=wrap;html=1;fixedSize=1;" parent="1" vertex="1">
          <mxGeometry x="229" y="-370" width="230" height="80" as="geometry" />
        </mxCell>
        <mxCell id="pt4FCwm9u95KX51KxjBi-4" value="&lt;font style=&quot;font-size: 24px;&quot;&gt;Điểm có hợp lệ&lt;/font&gt;" style="rhombus;whiteSpace=wrap;html=1;" parent="1" vertex="1">
          <mxGeometry x="210" y="-190" width="260" height="110" as="geometry" />
        </mxCell>
        <mxCell id="pt4FCwm9u95KX51KxjBi-5" value="" style="endArrow=classic;html=1;rounded=0;" parent="1" edge="1">
          <mxGeometry width="50" height="50" relative="1" as="geometry">
            <mxPoint x="339.5" y="-290" as="sourcePoint" />
            <mxPoint x="340" y="-190" as="targetPoint" />
            <Array as="points">
              <mxPoint x="340" y="-260" />
            </Array>
          </mxGeometry>
        </mxCell>
        <mxCell id="pt4FCwm9u95KX51KxjBi-6" value="" style="endArrow=classic;html=1;rounded=0;exitX=1;exitY=1;exitDx=0;exitDy=0;" parent="1" source="pt4FCwm9u95KX51KxjBi-4" edge="1">
          <mxGeometry width="50" height="50" relative="1" as="geometry">
            <mxPoint x="530" y="-140" as="sourcePoint" />
            <mxPoint x="540" y="-30" as="targetPoint" />
          </mxGeometry>
        </mxCell>
        <mxCell id="pt4FCwm9u95KX51KxjBi-7" value="" style="endArrow=classic;html=1;rounded=0;exitX=0.5;exitY=1;exitDx=0;exitDy=0;" parent="1" source="pt4FCwm9u95KX51KxjBi-4" edge="1">
          <mxGeometry width="50" height="50" relative="1" as="geometry">
            <mxPoint x="370" y="90" as="sourcePoint" />
            <mxPoint x="340" y="50" as="targetPoint" />
          </mxGeometry>
        </mxCell>
        <mxCell id="pt4FCwm9u95KX51KxjBi-8" value="&lt;font style=&quot;font-size: 24px;&quot;&gt;Có&lt;/font&gt;" style="text;html=1;align=center;verticalAlign=middle;whiteSpace=wrap;rounded=0;" parent="1" vertex="1">
          <mxGeometry x="280" y="-50" width="60" height="30" as="geometry" />
        </mxCell>
        <mxCell id="pt4FCwm9u95KX51KxjBi-9" value="&lt;font style=&quot;font-size: 24px;&quot;&gt;Không&lt;/font&gt;" style="text;html=1;align=center;verticalAlign=middle;whiteSpace=wrap;rounded=0;" parent="1" vertex="1">
          <mxGeometry x="470" y="-110" width="60" height="30" as="geometry" />
        </mxCell>
        <mxCell id="pt4FCwm9u95KX51KxjBi-10" value="&lt;font style=&quot;font-size: 18px;&quot;&gt;Thông báo lỗi&lt;/font&gt;" style="rounded=0;whiteSpace=wrap;html=1;" parent="1" vertex="1">
          <mxGeometry x="470" y="-30" width="160" height="60" as="geometry" />
        </mxCell>
        <mxCell id="pt4FCwm9u95KX51KxjBi-11" value="&lt;font style=&quot;font-size: 18px;&quot;&gt;Lưu điểm&lt;/font&gt;" style="rounded=0;whiteSpace=wrap;html=1;" parent="1" vertex="1">
          <mxGeometry x="284" y="55" width="120" height="60" as="geometry" />
        </mxCell>
        <mxCell id="pt4FCwm9u95KX51KxjBi-12" value="" style="endArrow=classic;html=1;rounded=0;entryX=1;entryY=0.5;entryDx=0;entryDy=0;exitX=0.5;exitY=1;exitDx=0;exitDy=0;" parent="1" source="pt4FCwm9u95KX51KxjBi-10" target="pt4FCwm9u95KX51KxjBi-11" edge="1">
          <mxGeometry width="50" height="50" relative="1" as="geometry">
            <mxPoint x="450" y="100" as="sourcePoint" />
            <mxPoint x="500" y="50" as="targetPoint" />
          </mxGeometry>
        </mxCell>
        <mxCell id="pt4FCwm9u95KX51KxjBi-13" value="" style="endArrow=classic;html=1;rounded=0;exitX=0.5;exitY=1;exitDx=0;exitDy=0;" parent="1" source="pt4FCwm9u95KX51KxjBi-11" edge="1">
          <mxGeometry width="50" height="50" relative="1" as="geometry">
            <mxPoint x="330" y="220" as="sourcePoint" />
            <mxPoint x="344" y="160" as="targetPoint" />
          </mxGeometry>
        </mxCell>
        <mxCell id="pt4FCwm9u95KX51KxjBi-14" value="&lt;font style=&quot;font-size: 18px;&quot;&gt;Kết thúc&lt;/font&gt;" style="rounded=0;whiteSpace=wrap;html=1;" parent="1" vertex="1">
          <mxGeometry x="284" y="170" width="120" height="60" as="geometry" />
        </mxCell>
      </root>
    </mxGraphModel>
  </diagram>
</mxfile>
